<?xml version="1.0" encoding="iso-8859-1"?>
<!-- Generator: Adobe Illustrator 19.0.0, SVG Export Plug-In . SVG Version: 6.00 Build 0)  -->
<svg version="1.1" id="Layer_1" xmlns="http://www.w3.org/2000/svg" xmlns:xlink="http://www.w3.org/1999/xlink" x="0px" y="0px"
	 viewBox="0 0 512 512" style="enable-background:new 0 0 512 512;" xml:space="preserve">
<circle style="fill:#91DC5A;" cx="331.755" cy="256" r="172.408"/>
<path style="fill:#6DC82A;" d="M436.978,119.43c22.465,29.114,35.838,65.605,35.838,105.223c0,95.218-77.19,172.408-172.408,172.408
	c-39.618,0-76.109-13.373-105.223-35.838c31.527,40.859,80.97,67.185,136.57,67.185c95.218,0,172.408-77.19,172.408-172.408
	C504.163,200.4,477.837,150.956,436.978,119.43z"/>
<path style="fill:#C9EEAE;" d="M276.688,256c-18.601,34.198-54.852,57.469-96.443,57.469S102.403,290.198,83.802,256H7.837
	c0,95.218,77.19,172.408,172.408,172.408S352.653,351.218,352.653,256H276.688z"/>
<path style="fill:#91DC5A;" d="M330.491,256c-10.315,85.362-83,151.51-171.144,151.51c-42.289,0-81.014-15.235-111.008-40.502
	c31.627,37.541,78.977,61.4,131.906,61.4c95.218,0,172.408-77.19,172.408-172.408H330.491z"/>
<path style="fill:#FFF5CC;" d="M276.688,256c-18.601,34.198-54.852,57.469-96.443,57.469S102.403,290.198,83.802,256H39.184
	c0,77.907,63.156,141.061,141.061,141.061S321.306,333.906,321.306,256H276.688z"/>
<path style="fill:#FFDA44;" d="M298.865,256c-10.099,67.995-68.714,120.163-139.518,120.163c-33.63,0-64.505-11.776-88.744-31.419
	c25.862,31.912,65.366,52.317,109.642,52.317c77.906,0,141.061-63.156,141.061-141.061H298.865z"/>
<ellipse style="fill:#3FC378;" cx="441.992" cy="256" rx="18.286" ry="23.51"/>
<path d="M331.755,75.755c-99.388,0-180.245,80.857-180.245,180.245c0,12.264,1.239,24.517,3.681,36.422l15.354-3.15
	c-2.23-10.869-3.361-22.064-3.361-33.272c0-90.745,73.826-164.571,164.571-164.571S496.327,165.255,496.327,256
	S422.5,420.571,331.755,420.571c-16.492,0-32.753-2.429-48.333-7.219l-4.606,14.982c17.074,5.25,34.885,7.911,52.939,7.911
	C431.143,436.245,512,355.388,512,256S431.143,75.755,331.755,75.755z"/>
<path d="M302.148,126.09l-3.481-15.282c-55.472,12.635-99.471,56.639-112.094,112.106l15.283,3.477
	C213.15,176.766,252.517,137.396,302.148,126.09z"/>
<path d="M467.374,263.391c13.465-2.376,23.728-14.153,23.728-28.289h-15.673c0,5.541-3.473,10.274-8.353,12.169
	c-3.159-13.049-13.204-22.618-25.084-22.618c-14.404,0-26.122,14.062-26.122,31.347s11.719,31.347,26.122,31.347
	C454.274,287.347,464.597,277.119,467.374,263.391z M431.543,256c0-8.496,4.786-15.673,10.449-15.673
	c3.774,0,7.149,3.196,8.987,7.837h-9.51v15.673h9.51c-1.838,4.64-5.213,7.837-8.987,7.837
	C436.328,271.673,431.543,264.496,431.543,256z"/>
<path d="M360.49,256v-7.837h-88.461l-2.226,4.093c-17.907,32.924-52.224,53.377-89.558,53.377s-71.651-20.453-89.558-53.377
	l-2.226-4.093H0V256c0,99.388,80.857,180.245,180.245,180.245S360.49,355.388,360.49,256z M180.245,321.306
	c41.511,0,79.783-21.902,100.996-57.469h31.993c-4.071,69.826-62.159,125.388-132.987,125.388S51.33,333.663,47.259,263.837h31.993
	C100.462,299.404,138.734,321.306,180.245,321.306z M180.245,420.571c-88.12,0-160.285-69.612-164.388-156.735h15.695
	c4.089,78.474,69.218,141.061,148.692,141.061s144.602-62.587,148.692-141.061h15.695
	C340.53,350.959,268.364,420.571,180.245,420.571z"/>
<g>
</g>
<g>
</g>
<g>
</g>
<g>
</g>
<g>
</g>
<g>
</g>
<g>
</g>
<g>
</g>
<g>
</g>
<g>
</g>
<g>
</g>
<g>
</g>
<g>
</g>
<g>
</g>
<g>
</g>
</svg>
